<svg xmlns="http://www.w3.org/2000/svg" version="1.1" xmlns:xlink="http://www.w3.org/1999/xlink" viewBox="0 0 200 200"><rect width="200" height="200" fill="url('#gradient')"></rect><defs><linearGradient id="gradient" gradientTransform="rotate(45 0.5 0.5)"><stop offset="0%" stop-color="#f71412"></stop><stop offset="100%" stop-color="#f71412"></stop></linearGradient></defs><g><g fill="#ffffff" transform="matrix(2.433267326732673,0,0,2.433267326732673,8.048744829975732,117.30478801349602)" stroke="#ffffff" stroke-width="0.2"><path d="M12.71-7.60L12.71-1.76Q11.92-0.88 10.40-0.34Q8.88 0.20 7.06 0.20L7.06 0.20Q4.27 0.20 2.60-1.51Q0.93-3.22 0.81-6.27L0.81-6.27L0.80-7.50Q0.80-9.60 1.54-11.17Q2.29-12.73 3.67-13.58Q5.05-14.42 6.87-14.42L6.87-14.42Q9.52-14.42 10.99-13.21Q12.46-11.99 12.71-9.58L12.71-9.58L9.40-9.58Q9.23-10.77 8.64-11.28Q8.06-11.79 6.98-11.79L6.98-11.79Q5.69-11.79 4.99-10.69Q4.29-9.60 4.28-7.57L4.28-7.57L4.28-6.71Q4.28-4.58 5.00-3.51Q5.73-2.44 7.29-2.44L7.29-2.44Q8.63-2.44 9.29-3.04L9.29-3.04L9.29-5.24L6.90-5.24L6.90-7.60L12.71-7.60ZM14.15-4.82L14.14-5.38Q14.14-6.96 14.76-8.20Q15.37-9.43 16.52-10.10Q17.68-10.76 19.23-10.76L19.23-10.76Q21.60-10.76 22.97-9.29Q24.34-7.82 24.34-5.29L24.34-5.29L24.34-5.18Q24.34-2.71 22.96-1.25Q21.59 0.20 19.25 0.20L19.25 0.20Q16.99 0.20 15.63-1.16Q14.26-2.51 14.15-4.82L14.15-4.82ZM17.44-5.77L17.43-5.18Q17.43-3.71 17.89-3.03Q18.35-2.34 19.25-2.34L19.25-2.34Q21.01-2.34 21.04-5.05L21.04-5.05L21.04-5.38Q21.04-8.22 19.23-8.22L19.23-8.22Q17.58-8.22 17.44-5.77L17.44-5.77ZM25.72-10.57L28.81-10.57L28.92-9.33Q30.01-10.76 31.93-10.76L31.93-10.76Q33.58-10.76 34.40-9.78Q35.21-8.79 35.24-6.81L35.24-6.81L35.24 0L31.94 0L31.94-6.67Q31.94-7.47 31.62-7.85Q31.30-8.22 30.45-8.22L30.45-8.22Q29.48-8.22 29.01-7.46L29.01-7.46L29.01 0L25.72 0L25.72-10.57ZM36.66-4.82L36.65-5.38Q36.65-6.96 37.27-8.20Q37.88-9.43 39.03-10.10Q40.19-10.76 41.74-10.76L41.74-10.76Q44.11-10.76 45.48-9.29Q46.85-7.82 46.85-5.29L46.85-5.29L46.85-5.18Q46.85-2.71 45.47-1.25Q44.10 0.20 41.76 0.20L41.76 0.20Q39.50 0.20 38.13-1.16Q36.77-2.51 36.66-4.82L36.66-4.82ZM39.95-5.77L39.94-5.18Q39.94-3.71 40.40-3.03Q40.86-2.34 41.76-2.34L41.76-2.34Q43.52-2.34 43.55-5.05L43.55-5.05L43.55-5.38Q43.55-8.22 41.74-8.22L41.74-8.22Q40.09-8.22 39.95-5.77L39.95-5.77ZM48.84-13.19L52.13-13.19L52.13-10.57L53.87-10.57L53.87-8.28L52.13-8.28L52.13-3.45Q52.13-2.85 52.34-2.62Q52.56-2.38 53.19-2.38L53.19-2.38Q53.68-2.38 54.01-2.44L54.01-2.44L54.01-0.09Q53.13 0.20 52.16 0.20L52.16 0.20Q50.46 0.20 49.65-0.61Q48.84-1.41 48.84-3.04L48.84-3.04L48.84-8.28L47.49-8.28L47.49-10.57L48.84-10.57L48.84-13.19ZM60.27 0.20L60.27 0.20Q57.84 0.20 56.34-1.25Q54.83-2.71 54.83-5.03L54.83-5.03L54.83-5.30Q54.83-6.92 55.43-8.16Q56.04-9.40 57.19-10.08Q58.34-10.76 59.92-10.76L59.92-10.76Q62.15-10.76 63.44-9.38Q64.73-8.00 64.73-5.53L64.73-5.53L64.73-4.25L58.18-4.25Q58.36-3.36 58.96-2.85Q59.55-2.34 60.50-2.34L60.50-2.34Q62.06-2.34 62.94-3.44L62.94-3.44L64.44-1.66Q63.83-0.81 62.70-0.31Q61.57 0.20 60.27 0.20ZM59.90-8.22L59.90-8.22Q58.46-8.22 58.18-6.31L58.18-6.31L61.50-6.31L61.50-6.56Q61.52-7.35 61.10-7.79Q60.68-8.22 59.90-8.22ZM71.58-2.97L71.58-2.97Q71.58-3.39 71.14-3.64Q70.70-3.90 69.47-4.17Q68.24-4.44 67.44-4.89Q66.64-5.33 66.22-5.97Q65.80-6.60 65.80-7.42L65.80-7.42Q65.80-8.88 67.00-9.82Q68.20-10.76 70.15-10.76L70.15-10.76Q72.24-10.76 73.51-9.81Q74.78-8.87 74.78-7.32L74.78-7.32L71.47-7.32Q71.47-8.59 70.14-8.59L70.14-8.59Q69.62-8.59 69.27-8.31Q68.92-8.02 68.92-7.59L68.92-7.59Q68.92-7.15 69.35-6.88Q69.78-6.60 70.72-6.43Q71.66-6.25 72.37-6.01L72.37-6.01Q74.76-5.19 74.76-3.07L74.76-3.07Q74.76-1.62 73.47-0.71Q72.19 0.20 70.15 0.20L70.15 0.20Q68.79 0.20 67.72-0.29Q66.66-0.78 66.06-1.62Q65.47-2.46 65.47-3.39L65.47-3.39L68.54-3.39Q68.56-2.66 69.03-2.32Q69.50-1.98 70.23-1.98L70.23-1.98Q70.91-1.98 71.25-2.26Q71.58-2.53 71.58-2.97Z"></path></g></g></svg>